<svg xmlns="http://www.w3.org/2000/svg" width="15" height="15" viewBox="0 0 15 15">
    <g fill="none" fill-rule="evenodd">
        <g fill="#939393">
            <g>
                <path d="M31.245 27.317c1.1-1.311 1.762-3 1.755-4.845C32.984 18.339 29.63 15 25.5 15v1.324c3.393 0 6.163 2.76 6.176 6.153.007 1.65-.63 3.204-1.792 4.375-1.162 1.17-2.71 1.818-4.384 1.824-3.393 0-6.163-2.76-6.176-6.152-.007-1.65.63-3.204 1.793-4.375 1.16-1.17 2.71-1.818 4.36-1.825L25.5 15h-.031c-4.14.017-7.486 3.387-7.47 7.53.016 4.132 3.37 7.47 7.5 7.47h.03c1.82-.007 3.486-.663 4.78-1.746l1.56 1.548c.13.13.298.193.466.193.17 0 .341-.066.47-.196.258-.259.257-.678-.003-.935l-1.558-1.547z" transform="translate(-678.000000, -142.000000) translate(660.000000, 127.000000)"/>
            </g>
        </g>
    </g>
</svg>
